<svg width="199" height="196" fill="none" xmlns="http://www.w3.org/2000/svg">
  <path opacity=".2" d="M21.227 150.837C-6.739 124.928-3.23 81.202 9.812 66.531c13.043-14.67 35.424-24.53 46.018-41.124C66.425 8.814 79.45-3.69 106.511 1c27.062 4.689 29.091 25.019 38.426 36.632 9.334 11.614 45.121 14.473 46.965 46.893 1.843 32.42-20.352 35.001-29.526 44.118-9.174 9.117-20.669 48.469-52.563 52.636-39.089 5.111-64.92-8.518-88.586-30.442z" fill="#F8AB74"/>
  <path d="M156.001 26.985H13.178v142.461H156V26.984z" fill="#91C4FB"/>
  <path d="M156.001 19.833H13.178v142.461H156V19.833z" fill="#E4E7FF"/>
  <path d="M156.001 19.833H13.178v24.804H156V19.833z" fill="#7371FC"/>
  <path d="M26.22 33.922a4.581 4.581 0 004.587-4.576 4.581 4.581 0 00-4.587-4.575 4.581 4.581 0 00-4.587 4.575 4.581 4.581 0 004.587 4.576z" fill="#443DC3"/>
  <path d="M26.212 31.029a2.087 2.087 0 01-1.474-.61c-.391-.39-.61-.918-.61-1.47V9a2.072 2.072 0 011.285-1.922 2.085 2.085 0 011.596.001A2.08 2.08 0 0128.292 9v19.95a2.087 2.087 0 01-2.08 2.079z" fill="#FE814B"/>
  <path d="M40.81 33.922a4.581 4.581 0 004.586-4.576 4.581 4.581 0 00-4.587-4.575 4.581 4.581 0 00-4.587 4.575 4.581 4.581 0 004.587 4.576z" fill="#443DC3"/>
  <path d="M40.81 31.029a2.088 2.088 0 01-1.926-1.284 2.075 2.075 0 01-.159-.796V9a2.075 2.075 0 011.287-1.92 2.089 2.089 0 012.271.45c.391.39.61.919.61 1.47v19.95c0 .552-.219 1.08-.61 1.47-.39.39-.92.61-1.473.61z" fill="#FE814B"/>
  <path d="M55.403 33.922a4.581 4.581 0 004.587-4.576 4.581 4.581 0 00-4.587-4.575 4.581 4.581 0 00-4.587 4.575 4.581 4.581 0 004.587 4.576z" fill="#443DC3"/>
  <path d="M55.403 31.029a2.087 2.087 0 01-1.473-.61c-.391-.39-.61-.918-.61-1.47V9c0-.551.219-1.08.61-1.47.39-.39.92-.609 1.473-.609a2.088 2.088 0 011.934 1.282c.105.252.16.523.16.797v19.95a2.076 2.076 0 01-1.293 1.924 2.088 2.088 0 01-.8.155z" fill="#FE814B"/>
  <path d="M69.993 33.922a4.581 4.581 0 004.587-4.576 4.581 4.581 0 00-4.587-4.575 4.581 4.581 0 00-4.587 4.575 4.581 4.581 0 004.587 4.576z" fill="#443DC3"/>
  <path d="M69.993 31.029a2.087 2.087 0 01-1.47-.61 2.076 2.076 0 01-.61-1.47V9a2.069 2.069 0 011.283-1.92 2.085 2.085 0 011.595-.002A2.08 2.08 0 0172.077 9v19.95c0 .552-.22 1.08-.61 1.47-.391.39-.921.61-1.474.61z" fill="#FE814B"/>
  <path d="M84.587 33.922a4.581 4.581 0 004.587-4.576 4.581 4.581 0 00-4.587-4.575A4.581 4.581 0 0080 29.346a4.581 4.581 0 004.587 4.576z" fill="#443DC3"/>
  <path d="M84.587 31.029a2.087 2.087 0 01-1.474-.61c-.39-.39-.61-.918-.61-1.47V9c0-.551.22-1.08.61-1.47a2.087 2.087 0 012.945.002c.39.39.609.917.609 1.468v19.95c0 .551-.22 1.08-.609 1.47-.39.389-.919.608-1.471.61z" fill="#FE814B"/>
  <path d="M99.18 33.922a4.581 4.581 0 004.588-4.576 4.581 4.581 0 00-4.587-4.575 4.581 4.581 0 00-4.587 4.575 4.581 4.581 0 004.587 4.576z" fill="#443DC3"/>
  <path d="M99.18 31.029a2.087 2.087 0 01-1.473-.61c-.39-.39-.61-.918-.61-1.47V9a2.07 2.07 0 011.286-1.922 2.088 2.088 0 012.272.452c.391.39.61.919.61 1.47v19.95c0 .552-.219 1.08-.61 1.47-.391.39-.921.61-1.474.61z" fill="#FE814B"/>
  <path d="M113.77 33.922a4.58 4.58 0 004.587-4.576 4.58 4.58 0 00-4.587-4.575 4.581 4.581 0 00-4.587 4.575 4.581 4.581 0 004.587 4.576z" fill="#443DC3"/>
  <path d="M113.77 31.029a2.089 2.089 0 01-1.925-1.284 2.07 2.07 0 01-.159-.796V9a2.07 2.07 0 01.61-1.47 2.091 2.091 0 011.474-.609A2.086 2.086 0 01115.838 9v19.95a2.087 2.087 0 01-2.068 2.079z" fill="#FE814B"/>
  <path d="M128.364 33.922a4.58 4.58 0 004.587-4.576 4.58 4.58 0 00-4.587-4.575 4.581 4.581 0 00-4.587 4.575 4.581 4.581 0 004.587 4.576z" fill="#443DC3"/>
  <path d="M128.364 31.029a2.08 2.08 0 01-2.084-2.079V9a2.08 2.08 0 012.084-2.08c.553 0 1.083.22 1.474.609.391.39.61.919.61 1.47v19.95c0 .552-.219 1.08-.61 1.47-.391.39-.921.61-1.474.61z" fill="#FE814B"/>
  <path d="M142.958 33.922a4.58 4.58 0 004.587-4.576 4.58 4.58 0 00-4.587-4.575 4.581 4.581 0 00-4.587 4.575 4.581 4.581 0 004.587 4.576z" fill="#443DC3"/>
  <path d="M142.958 31.029a2.087 2.087 0 01-1.474-.61 2.075 2.075 0 01-.61-1.47V9a2.072 2.072 0 012.084-2.079 2.084 2.084 0 011.923 1.284c.104.252.158.522.157.795v19.95c0 .551-.219 1.08-.609 1.47-.39.389-.919.608-1.471.61z" fill="#FE814B"/>
  <path d="M36.975 66.502H21.633v15.303h15.342V66.502zM55.564 66.502H40.222v15.303h15.342V66.502zM74.157 66.502H58.815v15.303h15.342V66.502zM92.746 66.502H77.404v15.303h15.342V66.502zM111.339 66.502H95.997v15.303h15.342V66.502zM129.933 66.502h-15.342v15.303h15.342V66.502zM148.522 66.502H133.18v15.303h15.342V66.502zM36.975 85.217H21.633v15.303h15.342V85.217zM55.564 85.217H40.222v15.303h15.342V85.217zM74.157 85.217H58.815v15.303h15.342V85.217zM92.746 85.217H77.404v15.303h15.342V85.217zM111.339 85.217H95.997v15.303h15.342V85.217zM129.933 85.217h-15.342v15.303h15.342V85.217zM148.522 85.217H133.18v15.303h15.342V85.217zM36.975 103.927H21.633v15.304h15.342v-15.304zM55.564 103.927H40.222v15.304h15.342v-15.304zM74.157 103.927H58.815v15.304h15.342v-15.304zM92.746 103.927H77.404v15.304h15.342v-15.304zM111.339 103.927H95.997v15.304h15.342v-15.304zM129.933 103.927h-15.342v15.304h15.342v-15.304zM148.522 103.927H133.18v15.304h15.342v-15.304zM36.975 122.638H21.633v15.303h15.342v-15.303zM55.564 122.638H40.222v15.303h15.342v-15.303zM74.157 122.638H58.815v15.303h15.342v-15.303zM92.746 122.638H77.404v15.303h15.342v-15.303zM111.339 122.638H95.997v15.303h15.342v-15.303zM129.933 122.638h-15.342v15.303h15.342v-15.303zM148.522 122.638H133.18v15.303h15.342v-15.303zM148.522 52.067H58.815v1.678h89.707v-1.678zM148.522 55.44H58.815v1.679h89.707V55.44zM148.522 58.819H58.815v1.678h89.707v-1.678zM148.526 143.942H21.633v1.678h126.893v-1.678zM148.526 147.315H21.633v1.679h126.893v-1.679zM148.526 150.693H21.633v1.679h126.893v-1.679z" fill="#E4E7FF"/>
  <path d="M55.568 52.067H22.686v8.425h32.882v-8.425z" fill="#FE814B"/>
  <path d="M13.178 163.407h142.717M13.178 165.027h142.717M13.178 166.642h142.717M13.178 168.257h142.717" stroke="#E4E7FF" stroke-width=".211" stroke-miterlimit="10"/>
  <path d="M62.794 68.176c.422.801.879 1.573 1.344 2.344l1.39 2.307 2.783 4.605h-1.556a112.734 112.734 0 015.073-9.631 79.898 79.898 0 012.938-4.605 45.123 45.123 0 013.336-4.36 93.618 93.618 0 01-2.169 5.022 150.88 150.88 0 01-7.63 14.393l-.846 1.433-.694-1.421a86.24 86.24 0 01-1.158-2.454c-.372-.823-.723-1.658-1.074-2.493a57.844 57.844 0 01-.977-2.53 20.096 20.096 0 01-.76-2.61z" fill="#32338C"/>
  <path d="M62.083 106.268c.423.801.88 1.572 1.349 2.344l1.39 2.307 2.778 4.626H66.05a112.802 112.802 0 015.073-9.632c.93-1.56 1.898-3.103 2.96-4.605a45.811 45.811 0 013.33-4.36 90.037 90.037 0 01-2.164 5.022 150.963 150.963 0 01-7.63 14.393l-.846 1.434-.719-1.409a99.3 99.3 0 01-1.154-2.454 99.722 99.722 0 01-1.074-2.492 57.903 57.903 0 01-.977-2.53 20.83 20.83 0 01-.765-2.644z" fill="#FE814B"/>
  <path d="M25.23 119.694c1.366 1.687 2.58 3.374 3.772 5.107a209.557 209.557 0 013.454 5.221c2.257 3.5 4.43 7.038 6.671 10.542-2.655-3.196-5.25-6.443-7.91-9.627a225.99 225.99 0 00-4.033-4.723c-1.366-1.561-2.76-3.058-4.202-4.441l2.249-2.079z" fill="#7371FC"/>
  <path d="M25.679 135.158a126.344 126.344 0 016.26-10.239 127.951 127.951 0 013.484-4.853c1.197-1.594 2.448-3.134 3.678-4.685-1.018 1.686-2.063 3.373-3.04 5.102a129.549 129.549 0 00-2.798 5.212 120.07 120.07 0 00-4.802 10.754l-2.782-1.291z" fill="#7371FC"/>
  <path d="M49.07 83.142c-2.477-.751-5.28 0-7.267 1.64a10.682 10.682 0 00-3.543 6.697 8.697 8.697 0 00.571 4.9c1.205 2.593 3.99 4.124 6.764 4.777 3.446.806 7.377.422 10.024-1.93 2.647-2.354 3.496-6.326 2.499-9.7-.804-2.711-2.825-5.153-5.535-5.967a9.67 9.67 0 00-3.842-.261c-2.816.303-5.594 1.43-7.58 3.445-1.988 2.016-3.078 4.95-2.571 7.717a8.89 8.89 0 002.084 4.217c3.268 3.74 9.428 4.525 13.529 1.72 4.1-2.804 5.597-8.817 3.28-13.207-1.133-2.142-3.208-3.926-5.63-4.112-1.836-.139-3.772.612-5.463-.11" stroke="#32338C" stroke-width=".423" stroke-miterlimit="10"/>
  <path d="M46.475 96.953l.562-9.004 6.57 7.895-10.794-3.395 10.794-3.306-7.132 7.81z" fill="#32338C"/>
  <path d="M47.874 101.443c-.964 7.553 1.881 15.401 7.124 20.933 5.242 5.533 12.716 8.78 20.326 9.349 7.61.57 15.11-1.345 21.735-5.127" stroke="#32338C" stroke-width=".846" stroke-miterlimit="10"/>
  <path d="M90.235 125.505c2.262.422 6.823 1.021 6.823 1.021l-3.411 5.296" stroke="#32338C" stroke-width=".998" stroke-miterlimit="10"/>
  <path d="M126.407 196h18.885l-.706-27.697L152.665 196h22.102c-1.112-13.072-2.562-27.693-4.079-36.632-3.247-19.171-10.57-22.996-10.57-22.996l-26.659-.881s-9.863 13.14-9.445 30.83c.182 7.494 1.235 18.955 2.393 29.679z" fill="#32338C"/>
  <path d="M126.069 114.28a25.157 25.157 0 00-4.782-.211 2.414 2.414 0 00-1.107.249 2.097 2.097 0 00-.846 1.598c-.211 1.598.203 3.213.689 4.752.107.329.217.658.33.987a8.558 8.558 0 002.689-1.687 10.312 10.312 0 003.027-5.688z" fill="#FE5228"/>
  <path d="M141.06 94.819c-.144-.578-.486-2.016-1.154-2.214-.575-.173-1.712.679-2.177.961-3.137 1.894-5.496 4.909-7.094 8.16-1.949 3.968-2.892 8.337-3.805 12.651-.246-.042-.499-.072-.749-.105a10.308 10.308 0 01-3.01 5.692 8.558 8.558 0 01-2.689 1.687c2.038 5.929 5.534 11.639 11.085 14.494.914.468 2.047.843 2.93.329.884-.515 1.116-1.733 1.235-2.775 1.268-11.217 3.804-22.257 5.398-33.436.246-1.78.465-3.673.03-5.444z" fill="#FE814B"/>
  <path d="M171.74 97.783l-17.266-7.784s-14.179-.127-17.98 4.263-6.819 14.051-6.819 14.051l3.805 27.178s1.488 4.664 9.508 6.667 17.151-5.786 17.151-5.786l11.601-38.589z" fill="#7371FC"/>
  <path d="M175.368 125.074l-3.643-1.904-7.949 15.127 3.644 1.904 7.948-15.127z" fill="#E4E7FF"/>
  <path d="M179.015 126.979l-3.643-1.905-7.948 15.127 3.643 1.905 7.948-15.127z" fill="#D0CDFF"/>
  <path d="M182.688 128.873l-3.643-1.904-7.946 15.129 3.644 1.904 7.945-15.129z" fill="#E4E7FF"/>
  <path d="M187.626 130.574l-3.661-1.888-7.876 15.2 3.661 1.888 7.876-15.2z" fill="#D0CDFF"/>
  <path d="M186.304 130.79l9.777 5.112a5.394 5.394 0 012.279 7.29l-2.919 5.554a5.41 5.41 0 01-3.182 2.649 5.428 5.428 0 01-4.128-.372l-9.774-5.11 7.949-15.126-.002.003z" fill="#FE814B"/>
  <path d="M80.326 79.92l-12.218-1.265 8.37 9.7c.25-.309.52-.6.753-.92a17.041 17.041 0 003.095-7.515z" fill="#32338C"/>
  <path d="M91.182 81.059L80.325 79.92a17.041 17.041 0 01-3.094 7.519c-.233.32-.503.612-.753.92l6.743 7.826 7.961-15.126z" fill="#FEC5B7"/>
  <path d="M87.196 88.667l-1.472 2.802 80.556 42.114 1.471-2.802-80.555-42.114zM84.25 94.273l-1.008 1.92 80.555 42.114 1.009-1.92L84.25 94.273z" fill="#7355FC"/>
  <path d="M85.723 91.47l-1.472 2.8 80.556 42.115 1.472-2.801-80.556-42.115zM88.654 85.853l-1.471 2.802 80.563 42.1 1.471-2.801-80.563-42.1z" fill="#7371FC"/>
  <path d="M90.138 83.068l-1.472 2.801 80.556 42.114 1.472-2.801-80.556-42.114z" fill="#7355FC"/>
  <path d="M91.19 81.066l-1.052 2.001 80.555 42.115 1.052-2.002L91.19 81.065z" fill="#7371FC"/>
  <path d="M160.313 117.19l-28.406-14.848 29.201 12.718-.795 2.13zM139.804 75.23a8.52 8.52 0 01-3.209.608 3.436 3.436 0 01-2.773-1.493c-.769-1.286-.262-3.015.736-4.133-2.114-.312-4.228-1.956-4.706-4.031a5.474 5.474 0 012.156-5.617c.207-.111.374-.282.482-.49a1.12 1.12 0 00-.05-.632 7.99 7.99 0 012.032-7.74 8.035 8.035 0 013.581-2.096 8.056 8.056 0 014.153-.031c.224-2.067 1.691-4.095 3.382-5.276a10.84 10.84 0 015.897-1.754 9.182 9.182 0 014.553.94 5.421 5.421 0 012.82 3.568c1.573-1.48 4.283-1.53 6.249-.633a7.973 7.973 0 013.889 3.67 6.173 6.173 0 01.102 5.266c2.346.122 4.675 1.851 5.61 4.002.934 2.15.262 4.96-1.691 6.241a6.658 6.658 0 011.957 2.248c.42.85.621 1.79.584 2.737a7.017 7.017 0 01-.33 2.458 4.756 4.756 0 01-3.966 3.074 3.109 3.109 0 01-.384 2.362 5.736 5.736 0 01-1.692 1.813 6.017 6.017 0 01-1.792.94 4.594 4.594 0 01-2.829-.111 4.58 4.58 0 01-2.223-1.748l-22.538-4.141z" fill="#32338C"/>
  <path d="M155.409 89.168c-.288.306-.6.588-.935.843a11.245 11.245 0 01-3.864 1.763 7.896 7.896 0 01-3.132.3c-.119 0-.233-.043-.347-.068.02.207.08.41.177.594.322.57 1.024.797 1.67.915 1.748.32 3.545.237 5.255-.244a.96.96 0 00.503-.27.963.963 0 00.153-.557c.087-1.104.261-2.2.52-3.276z" fill="#FE814B"/>
  <path d="M150.61 91.761c1.389-.337 2.7-.935 3.864-1.762.335-.255.647-.537.935-.844.401-1.754.925-3.458 1.242-5.25-1.767-.658-4.946.844-6.366 1.894-1.831 1.328-3.142 3.457-3.18 5.713-.004.157.005.314.026.469.114.025.228.05.346.067a7.9 7.9 0 003.133-.287z" fill="#FE5228"/>
  <path d="M143.119 65.89c2.071-.843 3.467-2.951 3.763-5.157.536 1.636.947 3.673 2.536 4.34.919.33 1.919.364 2.858.096a8.53 8.53 0 003.606-1.838c-.072 1.332-.452 3.424.326 4.508.311.412.697.762 1.137 1.033a6.823 6.823 0 004.046 1.08c-1.569 1.733-2.537 4.415-1.755 6.616a6.551 6.551 0 001.818 2.673c.157-.278.322-.556.47-.843a20.84 20.84 0 002.316-6.747 11.558 11.558 0 00-1.09-6.975c-1.594-2.952-4.689-4.887-7.902-5.904a13.041 13.041 0 00-4.866-.712c-2.194.151-5.255.986-6.866 2.61a13.258 13.258 0 00-2.477 3.66 20.831 20.831 0 00-.765 1.847 5.136 5.136 0 002.845-.286z" fill="#32338C"/>
  <path d="M159.641 76.568c-.774-2.201.186-4.883 1.754-6.617a6.825 6.825 0 01-4.046-1.08 4.156 4.156 0 01-1.137-1.032c-.778-1.084-.397-3.176-.326-4.508a8.53 8.53 0 01-3.606 1.838 4.663 4.663 0 01-2.858-.097c-1.594-.666-2.004-2.703-2.536-4.339-.296 2.206-1.691 4.318-3.763 5.157a5.137 5.137 0 01-2.841.275 23.91 23.91 0 00-.647 2.108 29.741 29.741 0 00-.718 8.506c.126 3.112.587 6.325 2.215 8.969 1.627 2.644 4.65 4.639 7.766 4.26a9.583 9.583 0 003.276-1.152c3.784-2.02 6.765-5.297 8.942-9 .123-.201.233-.42.347-.619a6.533 6.533 0 01-1.822-2.67z" fill="#FE814B"/>
  <path d="M160.025 75.302a7.336 7.336 0 00-.71 3.83c.055 1.011.326 2.108 1.184 2.673a2.417 2.417 0 002.169.088 4.991 4.991 0 001.762-1.366 6.962 6.962 0 001.662-2.918 3.949 3.949 0 00-.529-3.243c-.651-.894-1.898-1.64-2.997-1.294a4.54 4.54 0 00-2.541 2.23z" fill="#FE814B"/>
  <path d="M164.879 75.484a1.525 1.525 0 00-1.307-.705 1.892 1.892 0 00-1.352.565 3.374 3.374 0 00-.846 1.266c-.175.488-.316.988-.423 1.496l-.296-.168a1.652 1.652 0 011.408-.49c.266.055.502.206.664.422.153.21.244.458.262.717a1.51 1.51 0 01-.575 1.303 2.494 2.494 0 01-1.298.498 2.577 2.577 0 001.188-.62 1.318 1.318 0 00.423-1.151.946.946 0 00-.727-.844 1.38 1.38 0 00-1.099.422l-.423.422.139-.59a9.585 9.585 0 01.482-1.544c.206-.517.532-.979.951-1.345a2.121 2.121 0 011.556-.527 1.546 1.546 0 011.273.873z" fill="#32338C"/>
  <path d="M144.586 73.013c-.051.683-.453 1.21-.892 1.176-.44-.033-.757-.611-.706-1.298.05-.688.452-1.21.892-1.177.439.034.744.612.706 1.299zM153.464 74.295c-.051.683-.452 1.214-.892 1.18-.44-.033-.757-.615-.706-1.302.051-.688.452-1.21.892-1.177.44.034.757.616.706 1.299z" fill="#32328C"/>
  <path d="M141.512 69.947c.174-.407.412-.783.706-1.114.313-.344.685-.63 1.1-.843.211-.11.422-.228.663-.32.236-.091.492-.116.74-.072.254.04.497.135.71.278.233.144.415.354.525.603l-.055.135a9.72 9.72 0 01-.66.257c-.168.065-.341.12-.516.165a1.357 1.357 0 01-.49.038 1.818 1.818 0 00-.524 0 4.32 4.32 0 00-1.053.341c-.365.172-.71.381-1.031.625l-.115-.093zM155.29 71.743a5.818 5.818 0 00-.845-.843 4.23 4.23 0 00-.939-.59 1.947 1.947 0 00-.507-.131 1.374 1.374 0 01-.465-.156 5 5 0 01-.461-.291 6.158 6.158 0 01-.575-.422l-.021-.143c.17-.214.399-.372.659-.456.242-.088.501-.121.757-.097.251.021.492.108.698.253.198.148.387.307.566.477.345.312.632.684.846 1.096.209.396.351.823.423 1.265l-.136.038z" fill="#32338C"/>
  <path d="M143.406 78.697c-.067.54-.845.89-1.771.776-.926-.114-1.594-.645-1.526-1.19.067-.543.845-.893 1.771-.78.926.114 1.594.65 1.526 1.194zM154.834 80.123c-.068.543-.846.89-1.772.775-.925-.113-1.593-.645-1.526-1.189.068-.544.846-.89 1.772-.776.925.114 1.593.65 1.526 1.19z" fill="#F8AB74" opacity=".4"/>
  <path d="M148.137 72.034a6.565 6.565 0 01-.359 2.914 3.247 3.247 0 01-.913 1.202 5.54 5.54 0 00-1.011 1.02 1.763 1.763 0 00.389 2.383c.374.28.831.428 1.298.422.481.04.961-.097 1.349-.384-.365.34-.845.53-1.345.532a3.018 3.018 0 01-.752-.06 2 2 0 01-.71-.307 1.98 1.98 0 01-.846-1.265 2.064 2.064 0 01.317-1.523 5.85 5.85 0 011.078-1.046c.365-.292.664-.656.88-1.07.208-.428.35-.884.422-1.354.11-.494.148-.966.203-1.464zM143.892 80.072a9.915 9.915 0 001.269 1.594c.461.456 1.051.759 1.691.868a3.84 3.84 0 001.911-.362 6.82 6.82 0 001.733-1.076 4.734 4.734 0 01-1.598 1.358 3.644 3.644 0 01-2.114.481 3.143 3.143 0 01-1.877-1.05 5.945 5.945 0 01-1.015-1.813z" fill="#32338C"/>
  <path d="M116.565 115.777a6.887 6.887 0 01-.63-3.943c.144-1.506.605-3.032 1.636-4.141.254-.266.681-.515.956-.27a.789.789 0 01.148.679c-.148 1.223-.466 2.425-.597 3.652a6.237 6.237 0 00.516 3.609c.085-1.868.224-3.795 1.167-5.423a3.46 3.46 0 011.078-1.197.531.531 0 01.575-.072.553.553 0 01.178.422c.047.393.054.79.021 1.185.161-.367.401-.693.702-.958a.935.935 0 011.133-.101c.372.291.342.844.279 1.32a1.352 1.352 0 011.374-.611c.372.683.16 1.522 0 2.281-.22.959-.361 1.933-.423 2.914a3.482 3.482 0 01-.381 1.687c-.19.291-.393 1.488-2.701 1.472a9.212 9.212 0 01-2.731-.616 4.014 4.014 0 01-2.3-1.889z" fill="#FE814B"/>
  <path d="M121.634 110.134a27.97 27.97 0 00-.558 1.974 19.03 19.03 0 00-.368 2.007 20.57 20.57 0 00-.178 2.029c-.025.683 0 1.366 0 2.053a10.524 10.524 0 01-.266-2.053 12.194 12.194 0 01.554-4.103c.209-.661.482-1.299.816-1.907zM123.731 110.484a31.014 31.014 0 00-.347 1.831 20.786 20.786 0 00-.207 1.834 27.063 27.063 0 00-.055 1.851c.004.62.046 1.236.089 1.86a9.823 9.823 0 01-.343-1.847 11.505 11.505 0 01.267-3.749c.142-.61.342-1.206.596-1.78z" fill="#32338C"/>
  <path d="M157.269 126.484c1.809-6.634 8.387-24.522 12.26-28.372 1.053-1.042 2.832-.38 3.708.818.875 1.198.938 2.787.871 4.263-.258 5.638-1.806 11.125-3.404 16.539-2.084 7.064-12.573 19.592-14.036 19.09-5.28-1.8-20.757-25.664-20.757-25.664l6.43-.843 14.928 14.169z" fill="#FE814B"/>
  <path d="M125.777 118.446c.473.611.926 1.231 1.382 1.847l1.366 1.851 1.37 1.851c.456.616.917 1.232 1.361 1.86a30.451 30.451 0 01-1.56-1.687 28.986 28.986 0 01-1.433-1.813 34.455 34.455 0 01-1.311-1.902 26.82 26.82 0 01-1.175-2.007z" fill="#32338C"/>
  <path d="M142.324 112.298l.258-7.396a.901.901 0 00-.72-.914.904.904 0 00-.417.011l-.288.076-1.12-1.05a.901.901 0 00-.871-.211l-.909.262-1.328-.932a.9.9 0 00-.68-.148l-.753.135-.249-.11a.92.92 0 00-.866.076.906.906 0 00-.402.768v4.542l1.91 5.751M168.645 40.424a10.914 10.914 0 015.856-5.697l.08-.034-.355-.156a10.91 10.91 0 01-5.542-5.44l-.051-.11-.262.532a10.914 10.914 0 01-4.904 4.816l-.757.37h.046a10.9 10.9 0 015.729 5.373l.16.346z" fill="#FE814B"/>
  <path d="M176.112 43.937a5.459 5.459 0 012.929-2.847h.038l-.177-.08a5.453 5.453 0 01-2.765-2.732l-.025-.055-.136.27a5.43 5.43 0 01-2.452 2.408l-.38.19h.025a5.46 5.46 0 012.862 2.686l.081.16z" fill="#F8AB74"/>
  <path d="M13.06 92.352a10.886 10.886 0 015.855-5.693l.08-.034-.355-.16a10.897 10.897 0 01-5.534-5.5l-.05-.109-.276.54a10.894 10.894 0 01-4.904 4.816l-.756.375h.046a10.909 10.909 0 015.729 5.377l.164.388z" fill="#FE814B"/>
  <path d="M20.525 95.843a5.464 5.464 0 012.93-2.846h.038l-.177-.08a5.443 5.443 0 01-2.765-2.729l-.026-.055-.135.27a5.456 5.456 0 01-2.452 2.408l-.38.186h.025a5.452 5.452 0 012.862 2.69l.08.156z" fill="#F8AB74"/>
  <path d="M105.577 185.277a8.24 8.24 0 00-4.426-4.306l-.064-.025.271-.118a8.242 8.242 0 004.181-4.133l.038-.08.207.422a8.232 8.232 0 003.708 3.643l.571.283h-.034a8.26 8.26 0 00-4.338 4.061l-.114.253z" fill="#FE814B"/>
  <path d="M99.93 187.933a4.139 4.139 0 00-2.212-2.155h-.03l.132-.059a4.119 4.119 0 002.113-2.062v-.042l.106.202a4.113 4.113 0 001.852 1.822l.287.139a4.125 4.125 0 00-2.164 2.033l-.085.122z" fill="#F8AB74"/>
</svg>
