<svg width="291" height="294" fill="none" xmlns="http://www.w3.org/2000/svg"><path d="M31.15 225.5c-34.32-40.44-22.3-100.38-1.86-118.53C49.72 88.8 82.13 78.81 99.49 57.6c17.37-21.22 37.38-36.42 73.94-25.46 36.56 10.95 36.02 39.37 46.99 57 10.96 17.61 59.87 27.42 57.09 72.59-2.78 45.17-33.83 45.08-47.99 56.2-14.15 11.14-36.48 63.68-81.15 64.23-54.78.67-88.17-22.44-117.22-56.66z" fill="#EEF"/><path opacity=".3" d="M154.82 7.82l-1.94 6.73a21.93 21.93 0 00-5.02 2.04l-6.2-3.4-5.55 5.47 3.45 6.12c-.9 1.56-1.6 3.23-2.07 4.96l-6.8 1.89v7.74l6.82 1.94c.48 1.73 1.18 3.4 2.07 4.96l-3.47 6.12 5.54 5.48 6.2-3.41c1.58.89 3.28 1.57 5.03 2.04l1.94 6.75h7.85l1.93-6.73a21.92 21.92 0 005.06-2.06l6.2 3.4 5.53-5.47-3.45-6.12a21.16 21.16 0 002.04-4.96l6.81-1.94v-7.74l-6.81-1.94a21.13 21.13 0 00-2.07-4.96l3.44-6.12-5.53-5.47-6.16 3.45a21.93 21.93 0 00-5.02-2.04l-1.94-6.73h-7.88zm3.93 13.22a14.47 14.47 0 0113.99 17.43 14.48 14.48 0 01-28.65-2.97 14.61 14.61 0 0114.66-14.46v0zM269.4 135.38l-1.29 4.49a14.3 14.3 0 00-3.34 1.36l-4.12-2.27-3.68 3.64 2.29 4.07a14.46 14.46 0 00-1.38 3.3l-4.52 1.3v5.16l4.51 1.29c.33 1.15.8 2.26 1.39 3.3l-2.3 4.07 3.69 3.64 4.12-2.27c1.05.6 2.18 1.05 3.34 1.37l1.3 4.47h5.21l1.3-4.47c1.16-.32 2.28-.78 3.33-1.37l4.13 2.27 3.68-3.69-2.3-4.07c.6-1.04 1.06-2.15 1.38-3.3l4.52-1.29v-5.16l-4.52-1.3a14.44 14.44 0 00-1.37-3.3l2.29-4.06-3.69-3.64-4.12 2.26a14.56 14.56 0 00-3.34-1.36l-1.29-4.48-5.22.04zm2.58 8.8a9.63 9.63 0 11-9.75 9.65 9.72 9.72 0 019.78-9.64h-.03zM35.21 147.16l-2.8 9.75a32.09 32.09 0 00-7.25 2.96l-8.96-4.92-8.01 7.9 4.98 8.84a31.44 31.44 0 00-3 7.18l-9.85 2.77v11.21l9.85 2.76c.7 2.5 1.71 4.92 3 7.17l-4.98 8.85 8 7.92 8.97-4.93a31.74 31.74 0 007.26 2.96l2.8 9.73h11.34l2.8-9.73a31.8 31.8 0 007.26-2.96l8.96 4.93 8-7.92-4.98-8.85a31.1 31.1 0 003-7.17l9.86-2.76v-11.21l-9.86-2.76c-.7-2.51-1.7-4.93-3-7.19l4.98-8.85-8-7.9-8.96 4.91a32.14 32.14 0 00-7.27-2.95l-2.79-9.74H35.21zm5.68 19.14a21.1 21.1 0 0121.2 20.95c0 11.53-9.53 20.94-21.2 20.94-11.68 0-21.2-9.39-21.2-20.94 0-11.56 9.53-20.94 21.2-20.94v-.01z" stroke="#7371FC" stroke-width=".65" stroke-miterlimit="10"/><path d="M136.17 272.12c1.5-3.4 4.25-6.08 7.68-7.48l.1-.05-.46-.2a14.29 14.29 0 01-7.23-7.17l-.06-.15-.37.71a14.23 14.23 0 01-6.4 6.32l-1 .5h.06a14.29 14.29 0 017.5 7.04l.18.48z" fill="#32338C"/><path d="M145.94 276.73a7.1 7.1 0 013.82-3.73h.05l-.23-.1a7.14 7.14 0 01-3.61-3.59l-.03-.07-.19.36a7.16 7.16 0 01-3.22 3.15l-.5.25a7.13 7.13 0 013.74 3.52l.16.2zM271.2 82.76a10.63 10.63 0 00-5.73-5.58l-.07-.04.35-.16a10.65 10.65 0 005.4-5.35l.05-.1.27.52a10.71 10.71 0 004.79 4.73l.74.36h-.04a10.7 10.7 0 00-5.6 5.27l-.16.35z" fill="#7371FC"/><path d="M263.9 86.2a5.35 5.35 0 00-2.86-2.79H261l.17-.07a5.34 5.34 0 002.7-2.68v-.06l.14.26a5.3 5.3 0 002.4 2.37l.37.18a5.34 5.34 0 00-2.8 2.64l-.08.16z" fill="#32338C"/><path d="M13.6 139.28a10.65 10.65 0 00-5.73-5.59h-.08l.35-.15a10.7 10.7 0 005.4-5.36l.05-.1.27.52a10.68 10.68 0 004.8 4.73l.74.36h-.05c-2.45 1-4.45 2.88-5.6 5.27l-.16.32z" fill="#7371FC"/><path d="M6.3 142.72a5.37 5.37 0 00-2.87-2.78H3.4l.18-.08a5.36 5.36 0 002.7-2.68v-.05l.13.26a5.39 5.39 0 002.4 2.37l.37.18a5.36 5.36 0 00-2.8 2.63l-.07.15zM209.77 59.3a40.7 40.7 0 0113.54 4.36 109.68 109.68 0 0132.55 25.77c3.67 4.26 7.13 9.12 7.7 14.7.65 6.42-2.57 12.51-5.67 18.15-2.58 4.69-5.73 9.81-10.92 11.18-4.24 1.11-8.7-.65-12.53-2.81-15-8.36-26.25-22.6-32.7-38.53a50.98 50.98 0 01-3.77-23.36c.15-2.32-5.92-2.53-4.29-4.37 2.34-2.6 9.56-5.93 16.09-5.1z" fill="#32338C"/><path d="M247.74 73.23c-.49.67-1.04 1.3-1.64 1.88a22.32 22.32 0 01-7.22 4.47 15.6 15.6 0 01-6.13 1.37c-.24 0-.47-.01-.71-.04.1.4.27.8.5 1.13.78 1.06 2.24 1.33 3.55 1.41 3.53.2 7.06-.41 10.32-1.8.36-.11.69-.34.92-.64.17-.36.23-.76.17-1.15-.1-2.22 0-4.43.24-6.63z" fill="#F8AB73"/><path d="M238.88 79.58a22.32 22.32 0 007.22-4.47c.6-.58 1.15-1.2 1.64-1.88.36-3.58.97-7.1 1.16-10.74-3.67-.87-9.59 2.94-12.14 5.35-3.3 3.1-5.37 7.65-4.88 12.15.03.3.08.62.16.92.24.03.47.04.71.04 2.12-.03 4.2-.5 6.13-1.37z" fill="#FE814B"/><path d="M263.6 46.23c2.24-3.14 4.51-6.33 5.87-9.93 1.35-3.6 1.8-7.74.33-11.29-1.48-3.54-5.16-6.34-8.99-6.01 1.2-2.48-.26-5.22-2.28-7.1-2-1.89-4.78-2.7-7.5-3.12-7.7-1.19-15.54.42-23.32.08-2.87-.13-5.8-.55-8.3-1.97-2.5-1.42-4.47-4.02-4.47-6.89-1 2.19-2.14 4.83-1.97 7.24.17 2.4 1.49 4.84 3.7 5.8-2.23.65-4.57-.74-6.01-2.58-1.45-1.84-2.03-4.19-2.18-6.5a12.83 12.83 0 00-5.07 6.87c-.92 2.5-1.2 5.17-.86 7.8a9.6 9.6 0 004.09 6.54 5.8 5.8 0 01-3.23-.12 4.84 4.84 0 001.94 3.8c1.18.89 2.53 1.53 3.96 1.89 4.84 1.45 9.93 1.84 14.89 2.8 11.7 2.28 22.52 7.71 33.64 12 1.56.61 4.14 1.1 5.76.7z" fill="#FE642F"/><path d="M251.39 44.48c-1.68-5.95-.8-12.35 1.06-18.24-5.85 5.51-14.46 6.87-22.42 5.8 2.66-1.29 5.05-3.09 7.03-5.29-7.92-.51-16.08 1.42-23.98.65a43.34 43.34 0 00-1.81 8.22c-.59 5.7-.35 11.45.7 17.08 1.02 6.16 2.73 12.41 6.63 17.29 3.9 4.87 10.4 8.11 16.45 6.54 2.24-.65 4.34-1.7 6.2-3.1 7-4.96 12.07-12.21 15.49-20.12a19.3 19.3 0 01-5.35-8.83z" fill="#F8AB74"/><path d="M237.06 26.73c-1.98 2.2-4.37 4-7.03 5.3 7.96 1.08 16.57-.28 22.42-5.81-1.85 5.9-2.74 12.3-1.06 18.25a19.3 19.3 0 005.35 8.84c.43-1.02.85-2.05 1.25-3.1a41.73 41.73 0 002.91-14c.04-4.79-1.14-9.68-3.9-13.59-3.87-5.5-10.51-8.55-17.13-9.8-3.24-.69-6.57-.76-9.83-.2-4.3.85-10.16 3.27-12.95 6.9a26.79 26.79 0 00-4 7.9c7.89.73 16.05-1.2 23.97-.69z" fill="#FE642F"/><path d="M253.44 44.54c-.84 2.5-1 5.17-.46 7.74.37 2 1.18 4.16 3.02 5.02a4.8 4.8 0 004.31-.36c1.28-.8 2.36-1.88 3.16-3.15a13.86 13.86 0 002.58-6.22 7.94 7.94 0 00-1.87-6.26c-1.51-1.61-4.18-2.8-6.26-1.83a9.03 9.03 0 00-4.48 5.06z" fill="#F8AB73"/><path d="M263.14 43.7a3.06 3.06 0 00-2.77-1.1 3.8 3.8 0 00-2.53 1.46c-.64.79-1.1 1.71-1.34 2.7a24.13 24.13 0 00-.51 3.1l-.65-.27a3.27 3.27 0 012.67-1.29c.54.03 1.04.26 1.42.65a3 3 0 01.65 2.9 3.3 3.3 0 01-.76 1.2 4.86 4.86 0 01-2.45 1.3c.85-.32 1.61-.84 2.2-1.54.27-.34.47-.73.58-1.15.1-.41.1-.84 0-1.24a1.89 1.89 0 00-1.65-1.5 2.73 2.73 0 00-2.08 1.1l-.77.97.13-1.21c.1-1.08.28-2.15.56-3.2a7.03 7.03 0 011.54-2.89 4.27 4.27 0 012.96-1.44 3.1 3.1 0 012.8 1.44zM229.7 37.8a24.2 24.2 0 010 8.98 25.48 25.48 0 01-3.11 8.45l-.09-.27a9.95 9.95 0 002.88 1.18 8.13 8.13 0 01-3.07-.82l-.17-.09.1-.19a35.92 35.92 0 002.78-8.39c.57-2.91.8-5.88.69-8.85z" fill="#32338C"/><path d="M227.71 64.4c.64.42 1.37.7 2.13.8 2.02.19 3.92-1.66 5.26-3.42a10.11 10.11 0 00-7.39 2.61z" fill="#FE632E"/><path d="M229.09 61.03c-2.59-.26-6.4-2.58-6.4-2.58s2.18 4.16 5.02 5.94a10.12 10.12 0 017.41-2.58c.71-.94 1.34-1.94 1.9-2.98 0 0-5.36 2.49-7.93 2.2z" fill="#32338C"/><path d="M222.24 43.81c.07 1.38-.59 2.53-1.47 2.59-.88.05-1.65-1.04-1.72-2.41-.07-1.38.6-2.53 1.48-2.58.88-.06 1.65 1.03 1.71 2.4zM240.18 44.15c.07 1.37-.6 2.52-1.47 2.58-.88.06-1.65-1.04-1.72-2.4-.07-1.37.6-2.53 1.47-2.59.89-.06 1.66 1.03 1.72 2.4z" fill="#32328C"/><path d="M215.42 38.48a7.94 7.94 0 013.05-4.35c.4-.3.81-.56 1.24-.8.45-.25.95-.36 1.45-.33a3.18 3.18 0 012.68 1.45l-.08.28c-.71.42-1.45.8-2.22 1.13-.3.12-.63.19-.96.19-.35 0-.7.04-1.04.13-.34.1-.68.24-1 .4a11.28 11.28 0 00-2.89 2.05l-.23-.15zM243.2 38.62a11.26 11.26 0 00-2.94-2.04c-.32-.16-.66-.3-1-.4a3.7 3.7 0 00-1.04-.13c-.33 0-.66-.07-.96-.2-.77-.32-1.51-.7-2.23-1.12l-.07-.28a3.18 3.18 0 012.66-1.45c.5-.03 1 .08 1.45.33a12.78 12.78 0 012.33 1.7 8.16 8.16 0 012 3.44l-.2.15z" fill="#FE642E"/><path d="M221.34 55.4c0 1.1-1.48 1.99-3.31 1.99s-3.32-.9-3.32-1.99c0-1.1 1.49-1.99 3.32-1.99 1.83 0 3.31.9 3.31 1.99zM244.35 55.4c0 1.1-1.49 1.99-3.32 1.99-1.83 0-3.31-.9-3.31-1.99 0-1.1 1.48-1.99 3.31-1.99s3.32.9 3.32 1.99z" fill="#F8AB74" opacity=".4"/><path d="M215.04.11c-.44 2.26-.13 4.6.87 6.67a10.63 10.63 0 004.52 4.88c2.05.97 4.29 1.45 6.55 1.41 2.3.01 4.58-.1 6.86-.33 4.57-.36 9.19-.99 13.84-.64 2.35.11 4.63.85 6.6 2.13a8.47 8.47 0 012.36 2.58c.6 1 .9 2.15.87 3.32a6.36 6.36 0 00-1.04-3.23 8.23 8.23 0 00-2.39-2.38 13.03 13.03 0 00-6.45-1.86c-4.56-.24-9.14.37-13.73.78-2.3.22-4.62.3-6.94.27-2.3-.07-4.72-.39-6.8-1.58a11.03 11.03 0 01-4.57-5.21 10.54 10.54 0 01-.55-6.81z" fill="#F8AB74"/><path d="M254.89 24.1a7.75 7.75 0 00-4.79-5.8 13.54 13.54 0 00-7.67-.62 73.88 73.88 0 00-7.62 2.05 56.77 56.77 0 01-7.78 1.73c-2.65.4-5.34.42-8 .07-2.63-.38-5.32-1.12-7.49-2.8-2.16-1.64-3.7-3.98-4.35-6.63a11.7 11.7 0 01.89-7.8 11.82 11.82 0 00-.55 7.71c.7 2.53 2.22 4.74 4.34 6.28a15.85 15.85 0 007.25 2.58c2.6.32 5.22.27 7.81-.13 2.6-.37 5.17-.92 7.7-1.65 2.53-.81 5.12-1.46 7.74-1.94 2.66-.49 5.4-.2 7.9.85a8.68 8.68 0 013.13 2.47 6.8 6.8 0 011.49 3.63z" fill="#F8AB74"/><path d="M252.19 22.86a5.52 5.52 0 00-3.84-2.48c-1.53-.2-3.1.02-4.51.65a14.6 14.6 0 00-3.93 2.58c-1.2 1.05-2.34 2.2-3.53 3.28.96-1.3 2.01-2.54 3.15-3.7a12.75 12.75 0 014.03-2.8 9.73 9.73 0 012.41-.65c.84-.1 1.69-.06 2.51.12.82.2 1.59.56 2.25 1.07.65.5 1.15 1.17 1.46 1.93zM261.26 22.72a4.3 4.3 0 012.88.1c.93.38 1.75 1 2.36 1.8a9.53 9.53 0 011.81 5.58c.03 1.97-.35 3.93-1.12 5.75a21.66 21.66 0 01-2.92 4.97c.46-.86.93-1.69 1.32-2.59.42-.85.78-1.73 1.1-2.63.63-1.77.94-3.65.91-5.53 0-1.87-.53-3.7-1.53-5.27a5.25 5.25 0 00-2.06-1.8 4.4 4.4 0 00-2.75-.38zM256.19 25.82c.69-.12 1.4 0 2.02.33.63.35 1.17.84 1.57 1.44.74 1.18 1.25 2.5 1.48 3.87a13.13 13.13 0 01-.64 7.13 1.8 1.8 0 01-.24.47c-.1.14-.3.28-.46.18.18.06.3-.1.37-.23a12.12 12.12 0 00.32-1.47 16.61 16.61 0 00-.06-5.94c-.2-1.3-.62-2.57-1.23-3.74a4.42 4.42 0 00-1.29-1.43 3.22 3.22 0 00-1.84-.61z" fill="#F8AB74"/><path d="M104.46 45.5L23.58 55.92l11.34 87.97 80.88-10.44-11.34-87.97z" fill="#EEF"/><path d="M101.98 26.32L21.1 36.76l2.47 19.17 80.88-10.44-2.47-19.17z" fill="#7371FC"/><path d="M23.57 55.93l-11.01 1.42L23.9 145.3l11.01-1.42-11.34-87.96z" fill="#91C4FB"/><path d="M21.1 36.76l-11 1.42 2.46 19.17 11.02-1.42-2.48-19.17z" fill="#443DC3"/><path d="M42.24 59.63L29.9 61.25 32.1 78l12.34-1.62-2.2-16.76zM56.87 57.7l-12.33 1.63 2.2 16.76 12.33-1.62-2.2-16.76zM71.52 56.04l-12.36 1.6 2.17 16.78 12.36-1.6-2.17-16.78zM86.2 54.14l-12.36 1.6L76 72.53l12.36-1.6-2.16-16.79zM100.86 52.25l-12.36 1.6 2.17 16.78 12.36-1.59-2.17-16.8zM44.72 78.57l-12.34 1.62 2.2 16.76 12.34-1.62-2.2-16.76zM59.3 76.92l-12.36 1.6 2.17 16.78 12.36-1.6-2.17-16.78zM74 74.73l-12.35 1.62 2.2 16.76L76.2 91.5 74 74.73zM88.64 73.13l-12.36 1.6 2.17 16.78 12.36-1.6-2.17-16.78zM103.27 70.9l-12.34 1.62 2.2 16.76 12.34-1.62-2.2-16.76zM47.2 97.52l-12.34 1.62 2.2 16.76 12.34-1.62-2.2-16.76zM61.75 95.9L49.4 97.5l2.17 16.79 12.36-1.6-2.17-16.79zM76.42 94l-12.36 1.6 2.17 16.8 12.36-1.6L76.42 94zM91.09 92.11l-12.36 1.6 2.16 16.79 12.36-1.6-2.16-16.79zM105.76 90.22l-12.36 1.6 2.16 16.8 12.36-1.6-2.16-16.8zM49.53 116.78l-12.37 1.6 2.17 16.79 12.36-1.6-2.16-16.79zM64.2 114.88l-12.36 1.6L54 133.26l12.36-1.6-2.16-16.79zM78.87 113l-12.36 1.59 2.16 16.79 12.36-1.6L78.87 113zM93.53 111.1l-12.36 1.6 2.17 16.78 12.36-1.6-2.17-16.78zM108.2 109.2l-12.36 1.6 2.17 16.79 12.36-1.6-2.17-16.79z" fill="#FEFFFD"/><path d="M16.6 37.34l-.71-5.44a6.24 6.24 0 015.4-6.99l3.78-.49a6.24 6.24 0 016.98 5.4l1.21 9.38a6.24 6.24 0 01-5.39 6.98v0" stroke="#32338C" stroke-width="2.6" stroke-linecap="round" stroke-linejoin="round"/><path d="M27.38 35.95l-.7-5.45a6.24 6.24 0 015.39-6.98l3.78-.49a6.24 6.24 0 016.98 5.37l1.2 9.39a6.24 6.24 0 01-5.38 6.98v0" stroke="#32338C" stroke-width="2.6" stroke-linecap="round" stroke-linejoin="round"/><path d="M38.18 34.56l-.7-5.45a6.24 6.24 0 015.38-6.98l3.78-.49a6.23 6.23 0 016.98 5.39l1.21 9.38a6.23 6.23 0 01-5.38 6.98v0" stroke="#32338C" stroke-width="2.6" stroke-linecap="round" stroke-linejoin="round"/><path d="M48.97 33.16l-.7-5.44a6.24 6.24 0 015.37-6.99l3.77-.48a6.24 6.24 0 016.98 5.38l1.2 9.39A6.24 6.24 0 0160.23 42v0" stroke="#32338C" stroke-width="2.6" stroke-linecap="round" stroke-linejoin="round"/><path d="M59.76 31.77l-.7-5.45a6.23 6.23 0 015.38-6.96l3.78-.49a6.22 6.22 0 016.98 5.39l1.2 9.38a6.24 6.24 0 01-5.37 6.99v0" stroke="#32338C" stroke-width="2.6" stroke-linecap="round" stroke-linejoin="round"/><path d="M70.55 30.38l-.7-5.45a6.23 6.23 0 015.38-6.98l3.79-.49a6.22 6.22 0 016.97 5.38l1.21 9.4a6.23 6.23 0 01-5.38 6.97v0" stroke="#32338C" stroke-width="2.6" stroke-linecap="round" stroke-linejoin="round"/><path d="M81.34 28.98l-.7-5.44A6.23 6.23 0 0186 16.56l3.8-.5a6.23 6.23 0 016.95 5.4l1.21 9.38a6.24 6.24 0 01-5.38 6.98v0" stroke="#32338C" stroke-width="2.6" stroke-linecap="round" stroke-linejoin="round"/><path d="M139.11 248.68c54.6 0 98.85-44.28 98.85-98.9 0-54.63-44.25-98.92-98.85-98.92-54.6 0-98.85 44.29-98.85 98.91 0 54.63 44.26 98.91 98.85 98.91z" fill="#32338C"/><path d="M143.76 248.68c54.6 0 98.85-44.28 98.85-98.9 0-54.63-44.25-98.92-98.85-98.92-54.6 0-98.85 44.29-98.85 98.91 0 54.63 44.26 98.91 98.85 98.91z" fill="#7371FC"/><path d="M159.17 198.6c17.84-7.2 34.04-19.17 44.51-35.3 12.2-18.72 15.88-41.44 14.84-64.03a90.2 90.2 0 00-162.28 28.86 90.3 90.3 0 009.52 66.96c28.94 13.7 63.64 15.54 93.41 3.52z" fill="#fff"/><path d="M218.52 99.27c1.07 22.6-2.61 45.3-14.84 64.03-10.5 16.14-26.7 28.1-44.5 35.3-29.78 12.03-64.48 10.19-93.42-3.51a90.23 90.23 0 0092.28 43.85 90.17 90.17 0 0074-70.46 90.32 90.32 0 00-13.52-69.2z" fill="#EEF"/><path d="M142.78 150.93l-42.43-37.84 44.4 35.51-1.97 2.33z" fill="#32338C"/><path d="M145.45 148.7l19.59 71.93-22.97-69.8 3.38-2.13z" fill="#32338C"/><path d="M143.76 156.46a6.69 6.69 0 100-13.37 6.69 6.69 0 000 13.37z" fill="#FE814B"/><path d="M143.76 59.52v19.19M143.76 220.83v19.18M233.95 149.77h-19.17M72.75 149.77H53.57M67.63 101.38l16.18 10.28M203.7 187.87l16.19 10.3M192.12 73.6l-10.28 16.19M105.68 209.75l-10.28 16.2M219.89 101.38l-16.18 10.28M83.81 187.87l-16.18 10.3M95.4 73.6l10.28 16.19M181.84 209.75l10.28 16.2" stroke="#32338C" stroke-width="2.5" stroke-linecap="round" stroke-linejoin="round"/><path d="M93.9 199.57l-87.05 33 18.13 47.87 87.05-33-18.13-47.87z" fill="#F8AB74"/><path d="M59.46 240l-52.59-7.44 54.73 13.1 32.32-46.1L59.46 240z" fill="#FE814B"/><path d="M270.1 188.9l-81.14-19.16-24.7 104.74 81.14 19.16 24.7-104.74z" fill="#32338C"/><path d="M271.62 189.25l-81.15-19.16-24.7 104.74 81.14 19.16 24.7-104.74z" fill="#91C4FB"/><path d="M262.59 197.81l-67.86-16.03-20.88 88.51 67.86 16.03 20.88-88.51z" fill="#fff"/><path d="M221.52 165.69l24.3 5.74a7.26 7.26 0 015.4 8.73l-.96 4.05-38.43-9.07.96-4.05a7.26 7.26 0 018.73-5.4z" fill="#32338C"/><path d="M205.72 204.36a6.7 6.7 0 10-2.79-13.12 6.7 6.7 0 002.79 13.12z" fill="#EEEEFE"/><path d="M201.19 194.97l2.8 4.54 8.06-4.98" stroke="#FE814B" stroke-width="2.07" stroke-linecap="round" stroke-linejoin="round"/><path d="M217.38 196.6l36.94 8.71M216.42 200.67l36.93 8.73M215.46 204.75l36.93 8.73" stroke="#91C4FB" stroke-width="2.07" stroke-linecap="round" stroke-linejoin="round"/><path d="M205.94 220.14a6.7 6.7 0 11-13.04-3.07 6.7 6.7 0 0113.04 3.07z" fill="#EEEEFE"/><path d="M196.28 215.76l2.81 4.53 8.06-4.98" stroke="#FE814B" stroke-width="2.07" stroke-linecap="round" stroke-linejoin="round"/><path d="M212.47 217.38l36.94 8.72M211.51 221.46l36.94 8.72M210.55 225.54l36.93 8.72" stroke="#91C4FB" stroke-width="2.07" stroke-linecap="round" stroke-linejoin="round"/><path d="M200.57 242.29a6.7 6.7 0 10-12.11-5.77 6.7 6.7 0 0012.11 5.77z" fill="#EEEEFE"/><path d="M191.38 236.54l2.8 4.53 8.06-4.98" stroke="#FE814B" stroke-width="2.07" stroke-linecap="round" stroke-linejoin="round"/><path d="M207.57 238.16l36.94 8.72M206.61 242.24l36.94 8.72M205.65 246.32l36.93 8.73" stroke="#91C4FB" stroke-width="2.07" stroke-linecap="round" stroke-linejoin="round"/><path d="M203.16 173.09l55.76 13.16-.77 3.25a2.93 2.93 0 01-3.53 2.19l-50.04-11.82a2.94 2.94 0 01-2.18-3.53l.76-3.25z" fill="#91C4FB"/><path d="M193.34 265.86a6.71 6.71 0 10-7.18-11.34 6.71 6.71 0 007.18 11.34z" fill="#EEEEFE"/><path d="M186.63 257.36l2.8 4.53 8.06-4.98" stroke="#FE814B" stroke-width="2.07" stroke-linecap="round" stroke-linejoin="round"/><path d="M202.82 258.98l36.94 8.72M201.86 263.06l36.93 8.72M200.9 267.14l36.93 8.72" stroke="#91C4FB" stroke-width="2.07" stroke-linecap="round" stroke-linejoin="round"/><path d="M247.74 93.86a57.49 57.49 0 01-3.08 6.16c-1.12 2-2.35 3.95-3.7 5.8.9-2.1 1.93-4.16 3.08-6.15 1.12-2 2.36-3.94 3.7-5.8z" fill="#fff"/><path d="M257.25 123.45s-6.5 10.22-12.95 17.83c-6.45 7.62-15.54 16.14-15.54 16.14l-48.59-20.35 7.13-16.66 35.58 10.97 20.5-29.04 13.87 21.11z" fill="#32338C"/><path d="M179.64 117.19l7.66 3.23-5.02 11.73-4.98-1.7-11 .46-3.23-1.63a2.31 2.31 0 01-.98-3.22l.88-1.57-.78-.61a2.3 2.3 0 01-.73-2.68c.12-.31.3-.6.54-.82l.88-.85-1.2-1.61a2.34 2.34 0 01.04-2.8c.2-.27.46-.49.76-.64l1.2-.65-.39-2.13a2.33 2.33 0 011.74-2.68 5.45 5.45 0 014.48.88l10.13 7.29z" fill="#F8AB72"/><path d="M179.78 117.98c-2.34-5-4.7-10.13-5.13-15.63a.94.94 0 00-.27-.73.85.85 0 00-.45-.1 3.26 3.26 0 00-2.93 2.14 4.85 4.85 0 00.26 3.76c.15.24.24.52.25.8a1.6 1.6 0 01-.25.69l-1.22 2.14a22.35 22.35 0 009.74 6.93z" fill="#F8AB72"/><path d="M175.32 114.65a32.07 32.07 0 01-3.84-3c-.4-.37-.79-.73-1.15-1.14a41.14 41.14 0 012.63 1.93c.43.35.82.7 1.21 1.07.4.38.79.74 1.16 1.14z" fill="#32338C"/><path d="M172.8 49.05l11.76 4.52a3.65 3.65 0 012.31 3.76l-.6 5.99-4.06 6.67a1.7 1.7 0 01-1.07-2.33c.6-1.87 2.58-6.88 2.58-6.88v-3.52s-1.94 8.16-3.78 9.68c-1.84 1.52-8.5-1.45-10.32-2.91-.88-.72.69-3.03.9-6.45.27-3.65-.76-8.4 2.28-8.53z" fill="#F8AB74"/><path d="M180.32 51.78a20.96 20.96 0 01-2.01 12.01 19.18 19.18 0 01-2.2 3.46 27.38 27.38 0 003.3-7.4c.37-1.31.62-2.64.77-4 .15-1.35.2-2.71.14-4.07zM175.85 50.23a24.03 24.03 0 01-.65 7.98 26.17 26.17 0 01-2.1 5.65c-.16.3-.31.59-.5.88-.15.3-.42.52-.73.64.29-.15.52-.4.64-.7.16-.3.28-.61.42-.9a30.95 30.95 0 001.92-5.65 39.33 39.33 0 001-7.89z" fill="#32338C"/></svg>